<svg width="600" height="600" viewBox="0 0 600 600" fill="none" xmlns="http://www.w3.org/2000/svg">
<rect x="44" y="44" width="512" height="512" rx="20" fill="#04668D"/>
<path d="M203.5 304H206L242.5 209L277 210L278 317.5L282.75 382H249L250.25 317L247.5 251.25L217.5 334L186.75 335.5L158.75 251.25L156.5 317L158.25 382H127.25L130.75 321.25L132.25 214L172 207.75L203.5 304ZM394.018 384.75C382.184 384.75 365.101 383.833 342.768 382L345.768 321.25L342.768 209.5H409.518C432.018 209.5 449.601 216.25 462.268 229.75C474.934 243.25 481.268 262 481.268 286C481.268 316.333 473.434 340.417 457.768 358.25C442.101 375.917 420.851 384.75 394.018 384.75ZM400.518 236.5C389.518 236.5 381.768 236.583 377.268 236.75L374.768 317L376.518 357.5C390.518 358.5 399.934 359 404.768 359C417.934 359 428.268 353.667 435.768 343C443.434 332.333 447.268 316.833 447.268 296.5C447.268 276.167 443.518 261.083 436.018 251.25C428.684 241.417 416.851 236.5 400.518 236.5Z" fill="#F2F2F2"/>
</svg>
