<svg width="2533" height="560" viewBox="0 0 2533 560" fill="none" xmlns="http://www.w3.org/2000/svg">
<path d="M1557.25 364.75C1545.42 364.75 1528.33 363.833 1506 362L1509 301.25L1506 189.5H1572.75C1595.25 189.5 1612.83 196.25 1625.5 209.75C1638.17 223.25 1644.5 242 1644.5 266C1644.5 296.333 1636.67 320.417 1621 338.25C1605.33 355.917 1584.08 364.75 1557.25 364.75ZM1563.75 216.5C1552.75 216.5 1545 216.583 1540.5 216.75L1538 297L1539.75 337.5C1553.75 338.5 1563.17 339 1568 339C1581.17 339 1591.5 333.667 1599 323C1606.67 312.333 1610.5 296.833 1610.5 276.5C1610.5 256.167 1606.75 241.083 1599.25 231.25C1591.92 221.417 1580.08 216.5 1563.75 216.5ZM1742.52 188.25L1739.02 297L1742.02 362H1707.02L1710.02 301.25L1707.02 194.5L1742.52 188.25ZM1905.21 216.25H1851.96L1850.46 262.25H1898.21L1895.46 288.75H1849.71L1849.46 297L1852.46 362H1817.46L1820.46 301.25L1817.46 189.5H1907.96L1905.21 216.25ZM1998.55 188.25L1995.05 297L1998.05 362H1963.05L1966.05 301.25L1963.05 194.5L1998.55 188.25ZM2126.74 364.75C2108.24 364.75 2092.66 357 2079.99 341.5C2067.32 326 2060.99 307 2060.99 284.5C2060.99 257 2068.57 233.833 2083.74 215C2099.07 196.167 2117.82 186.75 2139.99 186.75C2148.66 186.75 2156.66 187.667 2163.99 189.5C2171.49 191.167 2176.82 192.917 2179.99 194.75L2184.49 197.5L2167.49 232.25C2163.66 228.917 2158.24 225.833 2151.24 223C2144.24 220 2137.91 218.5 2132.24 218.5C2120.74 218.5 2111.49 223.25 2104.49 232.75C2097.66 242.25 2094.24 255.833 2094.24 273.5C2094.24 291 2097.82 305.417 2104.99 316.75C2112.16 327.917 2121.91 333.5 2134.24 333.5C2142.24 333.5 2149.49 331 2155.99 326C2162.49 321 2167.07 314.333 2169.74 306L2190.49 318C2184.99 332.667 2176.57 344.167 2165.24 352.5C2153.91 360.667 2141.07 364.75 2126.74 364.75ZM2281.69 188.25L2278.19 297L2281.19 362H2246.19L2249.19 301.25L2246.19 194.5L2281.69 188.25ZM2356.63 362L2359.63 301.25L2356.63 194.5L2392.13 188.25L2388.63 297L2390.38 337.5L2441.63 333.5L2438.88 362H2356.63Z" fill="#04668D"/>
<path d="M707.5 284H710L746.5 189L781 190L782 297.5L786.75 362H753L754.25 297L751.5 231.25L721.5 314L690.75 315.5L662.75 231.25L660.5 297L662.25 362H631.25L634.75 301.25L636.25 194L676 187.75L707.5 284ZM926.768 187C946.434 187 962.601 194.5 975.268 209.5C988.101 224.5 994.518 243.583 994.518 266.75C994.518 296.083 986.934 319.75 971.768 337.75C956.601 355.75 936.684 364.75 912.018 364.75C892.851 364.75 876.768 357.083 863.768 341.75C850.768 326.25 844.268 307.167 844.268 284.5C844.268 256.167 852.018 232.833 867.518 214.5C883.018 196.167 902.768 187 926.768 187ZM960.518 280.75C960.518 238.583 946.684 217.5 919.018 217.5C906.351 217.5 896.351 222.25 889.018 231.75C881.851 241.083 878.268 255.167 878.268 274C878.268 292.667 882.101 308.083 889.768 320.25C897.601 332.25 907.851 338.25 920.518 338.25C933.351 338.25 943.184 333.167 950.018 323C957.018 312.667 960.518 298.583 960.518 280.75ZM1108.3 364.75C1096.47 364.75 1079.38 363.833 1057.05 362L1060.05 301.25L1057.05 189.5H1123.8C1146.3 189.5 1163.88 196.25 1176.55 209.75C1189.22 223.25 1195.55 242 1195.55 266C1195.55 296.333 1187.72 320.417 1172.05 338.25C1156.38 355.917 1135.13 364.75 1108.3 364.75ZM1114.8 216.5C1103.8 216.5 1096.05 216.583 1091.55 216.75L1089.05 297L1090.8 337.5C1104.8 338.5 1114.22 339 1119.05 339C1132.22 339 1142.55 333.667 1150.05 323C1157.72 312.333 1161.55 296.833 1161.55 276.5C1161.55 256.167 1157.8 241.083 1150.3 231.25C1142.97 221.417 1131.13 216.5 1114.8 216.5ZM1328.07 187C1347.73 187 1363.9 194.5 1376.57 209.5C1389.4 224.5 1395.82 243.583 1395.82 266.75C1395.82 296.083 1388.23 319.75 1373.07 337.75C1357.9 355.75 1337.98 364.75 1313.32 364.75C1294.15 364.75 1278.07 357.083 1265.07 341.75C1252.07 326.25 1245.57 307.167 1245.57 284.5C1245.57 256.167 1253.32 232.833 1268.82 214.5C1284.32 196.167 1304.07 187 1328.07 187ZM1361.82 280.75C1361.82 238.583 1347.98 217.5 1320.32 217.5C1307.65 217.5 1297.65 222.25 1290.32 231.75C1283.15 241.083 1279.57 255.167 1279.57 274C1279.57 292.667 1283.4 308.083 1291.07 320.25C1298.9 332.25 1309.15 338.25 1321.82 338.25C1334.65 338.25 1344.48 333.167 1351.32 323C1358.32 312.667 1361.82 298.583 1361.82 280.75Z" fill="#04668D"/>
<rect x="44" y="24" width="512" height="512" rx="20" fill="#04668D"/>
<path d="M198.5 284H201L237.5 189L272 190L273 297.5L277.75 362H244L245.25 297L242.5 231.25L212.5 314L181.75 315.5L153.75 231.25L151.5 297L153.25 362H122.25L125.75 301.25L127.25 194L167 187.75L198.5 284ZM389.018 364.75C377.184 364.75 360.101 363.833 337.768 362L340.768 301.25L337.768 189.5H404.518C427.018 189.5 444.601 196.25 457.268 209.75C469.934 223.25 476.268 242 476.268 266C476.268 296.333 468.434 320.417 452.768 338.25C437.101 355.917 415.851 364.75 389.018 364.75ZM395.518 216.5C384.518 216.5 376.768 216.583 372.268 216.75L369.768 297L371.518 337.5C385.518 338.5 394.934 339 399.768 339C412.934 339 423.268 333.667 430.768 323C438.434 312.333 442.268 296.833 442.268 276.5C442.268 256.167 438.518 241.083 431.018 231.25C423.684 221.417 411.851 216.5 395.518 216.5Z" fill="#F2F2F2"/>
</svg>
